<?xml version="1.0" encoding="UTF-8"?>
<svg version="1.1" xmlns="http://www.w3.org/2000/svg" width="480" height="480">
<path d="M0 0 C158.4 0 316.8 0 480 0 C480 158.4 480 316.8 480 480 C321.6 480 163.2 480 0 480 C0 321.6 0 163.2 0 0 Z " fill="#666666" transform="translate(0,0)"/>
<path d="M0 0 C13.2 0 26.4 0 40 0 C39.30678357 4.85251502 38.60011265 8.75428983 37.1796875 13.33203125 C36.81270752 14.52973145 36.44572754 15.72743164 36.06762695 16.96142578 C35.77597153 17.90263275 35.77597153 17.90263275 35.47842407 18.862854 C32.21783851 29.3977131 29.13023574 39.96186685 26.3125 50.625 C22.91964217 63.43366591 19.14844344 76.09944617 15.2109375 88.75 C12.32794812 98.05360066 9.58837603 107.29853389 7.48120117 116.80957031 C6.13362563 122.75388362 4.3114245 128.49335393 2.42163086 134.28442383 C0.22036599 141.11142602 -1.66470299 148.00404359 -3.5 154.9375 C-6.95788515 167.97564439 -10.78070816 180.871822 -14.7890625 193.75 C-17.67205188 203.05360066 -20.41162397 212.29853389 -22.51879883 221.80957031 C-23.86366274 227.74192228 -25.67747137 233.47165475 -27.56958008 239.24926758 C-30.24819716 247.53558256 -32.454221 255.94101884 -34.63989258 264.36889648 C-35.05791138 265.96326538 -35.05791138 265.96326538 -35.484375 267.58984375 C-35.85127441 269.01091431 -35.85127441 269.01091431 -36.22558594 270.46069336 C-37 273 -37 273 -39 277 C-52.2 277 -65.4 277 -79 277 C-77.87554404 269.12880831 -77.87554404 269.12880831 -76.85791016 265.66967773 C-76.62985687 264.88407974 -76.40180359 264.09848175 -76.1668396 263.28907776 C-75.91842316 262.44989304 -75.67000671 261.61070831 -75.4140625 260.74609375 C-74.86833314 258.86976902 -74.32311053 256.99329685 -73.77832031 255.11669922 C-73.48896606 254.12434265 -73.19961182 253.13198608 -72.90148926 252.10955811 C-71.33218714 246.69647515 -69.80465231 241.27161145 -68.2734375 235.84765625 C-67.62767303 233.56443365 -66.98183912 231.28123068 -66.3359375 228.99804688 C-65.68226783 226.68620466 -65.02862214 224.37435566 -64.375 222.0625 C-56.77157433 195.17229051 -56.77157433 195.17229051 -53.81884766 184.86157227 C-53.02122034 182.07415731 -52.22851387 179.28539185 -51.4375 176.49609375 C-51.19773438 175.65240234 -50.95796875 174.80871094 -50.7109375 173.93945312 C-50.23595203 172.26786965 -49.76199795 170.59599276 -49.2890625 168.92382812 C-47.95463639 164.23540089 -46.56197439 159.57121087 -45.109375 154.91796875 C-42.87993908 147.71196229 -40.87625944 140.45062681 -38.88171387 133.17706299 C-35.31657372 120.18514116 -31.63405607 107.23970945 -27.76318359 94.33520508 C-25.42953481 86.52883487 -23.25224336 78.68971764 -21.13867188 70.82128906 C-19.39391024 64.35720586 -17.49957566 57.95121085 -15.53735352 51.55029297 C-13.77009671 45.71999183 -12.11864472 39.86222272 -10.50390625 33.98828125 C-10.28324493 33.18672607 -10.06258362 32.3851709 -9.8352356 31.55932617 C-8.72120818 27.50809732 -7.61381019 23.45518893 -6.51464844 19.39990234 C-6.09976169 17.88504942 -5.68472872 16.37023654 -5.26953125 14.85546875 C-5.0853212 14.16761795 -4.90111115 13.47976715 -4.71131897 12.77107239 C-3.46405028 8.24373676 -1.88154926 4.39028161 0 0 Z " fill="#F8F8F8" transform="translate(254,45)"/>
<path d="M0 0 C5.53149045 -0.2487353 11.05967593 -0.42933845 16.59545898 -0.54931641 C18.47461687 -0.59935841 20.35339018 -0.66742085 22.23120117 -0.75439453 C37.7376965 -1.45418328 37.7376965 -1.45418328 43.06054688 1.96728516 C45.38575841 4.51607473 47.18849568 7.06852864 49 10 C50.14544375 11.48181803 51.30359726 12.95393284 52.4765625 14.4140625 C53.53060461 15.81428511 54.58016894 17.21789083 55.625 18.625 C59.33721073 23.60524311 63.16365257 28.36937198 67.29125977 33.01171875 C69.50575192 35.58849031 71.51196699 38.29182012 73.52587891 41.02636719 C75.97756667 44.30881897 78.58770053 47.4595255 81.1875 50.625 C85.42812627 55.81386728 89.62487919 61.03131775 93.75 66.3125 C97.63102171 71.2787396 101.57944442 76.18080704 105.5859375 81.046875 C110.44319107 86.988758 115.2146864 93.0001398 120 99 C118.3731545 102.6538776 116.13308374 105.59595747 113.6875 108.75 C113.25236084 109.31146729 112.81722168 109.87293457 112.36889648 110.45141602 C108.28574106 115.69157287 104.09226992 120.8410882 99.8894043 125.98535156 C96.37811157 130.2871609 92.91664399 134.62271805 89.5 139 C85.0181114 144.74019254 80.44043222 150.39693517 75.8359375 156.0390625 C71.89110208 160.88130124 68.01752879 165.77411181 64.17504883 170.69775391 C60.05327216 175.96517619 55.83472075 181.15173365 51.58984375 186.3203125 C51.079375 186.94421875 50.56890625 187.568125 50.04296875 188.2109375 C49.5624556 188.78874969 49.08194244 189.36656189 48.58686829 189.96188354 C46.97301276 191.95442254 46.97301276 191.95442254 45.72624207 194.09255981 C42.27202315 199.57902237 42.27202315 199.57902237 38.88401794 200.70028687 C36.36781833 200.92493018 33.96860258 200.90157857 31.4453125 200.78125 C30.54376434 200.76993042 29.64221619 200.75861084 28.71334839 200.74694824 C25.84835564 200.70234531 22.98846556 200.602026 20.125 200.5 C18.17715589 200.45985162 16.22923291 200.42335321 14.28125 200.390625 C9.5188828 200.30266394 4.76030475 200.16473835 0 200 C4.22071915 193.60329542 4.22071915 193.60329542 6.48046875 190.73828125 C6.91762207 190.18245361 7.35477539 189.62662598 7.80517578 189.05395508 C8.26134277 188.4792749 8.71750977 187.90459473 9.1875 187.3125 C9.66944824 186.70237061 10.15139648 186.09224121 10.64794922 185.46362305 C15.74198439 179.03183679 20.95098174 172.69611207 26.171875 166.3671875 C30.73698081 160.81459427 35.21227286 155.20164644 39.63671875 149.53710938 C43.15909987 145.03952356 46.75564809 140.60723861 50.375 136.1875 C55.5496372 129.86646025 60.533791 123.4197317 65.4453125 116.89257812 C68.97001986 112.2408347 72.66754091 107.89049055 76.8046875 103.76171875 C78.2274331 102.08923084 78.2274331 102.08923084 77.734375 100.11816406 C76.93173371 97.80309895 75.93948927 96.28475154 74.4453125 94.34765625 C73.91856934 93.66034424 73.39182617 92.97303223 72.84912109 92.26489258 C72.28016113 91.53810303 71.71120117 90.81131348 71.125 90.0625 C70.53928223 89.30541748 69.95356445 88.54833496 69.35009766 87.76831055 C65.36457449 82.65123552 61.25203905 77.66123601 57.02587891 72.7421875 C52.29855352 67.22783188 47.84071577 61.5127989 43.38378906 55.77929688 C41.05480725 52.78465689 38.71627059 49.79753826 36.375 46.8125 C35.91609375 46.22734619 35.4571875 45.64219238 34.984375 45.03930664 C31.48637361 40.59122309 27.90982236 36.21192715 24.3125 31.84375 C21.19228179 28.00672491 18.14827899 24.11208294 15.10571289 20.21337891 C11.41875934 15.50006599 7.62762075 10.88602975 3.77734375 6.3046875 C2.18714717 4.24267435 1.11751864 2.33325369 0 0 Z " fill="#F8F8F8" transform="translate(315,82)"/>
<path d="M0 0 C13.2 0 26.4 0 40 0 C38.452688 3.094624 37.16463962 5.23319129 35.0625 7.875 C34.43730469 8.66519531 33.81210938 9.45539063 33.16796875 10.26953125 C32.45253906 11.17058594 31.73710937 12.07164063 31 13 C29.74561725 14.60649019 28.49125499 16.21299645 27.23730469 17.81982422 C21.5822643 25.05381674 15.80900955 32.18768336 10.0078125 39.3046875 C6.30756107 43.8451707 2.65130693 48.42012794 -1 53 C-1.61875 53.77085937 -2.2375 54.54171875 -2.875 55.3359375 C-6.28253769 59.58161954 -9.6665869 63.84423981 -13.02270508 68.13061523 C-18.2643707 74.82493227 -23.59245006 81.43845793 -29 88 C-30.68910462 90.06119155 -32.37571313 92.12440967 -34.0625 94.1875 C-35.375 95.79166667 -36.6875 97.39583333 -38 99 C-36.32198863 102.86223846 -33.79665363 105.98683446 -31.1875 109.25 C-30.70756592 109.85553711 -30.22763184 110.46107422 -29.7331543 111.08496094 C-24.87001215 117.20308234 -19.93355086 123.2621462 -14.99609375 129.3203125 C-10.45569804 134.89216613 -5.95680737 140.4957231 -1.52734375 146.15625 C5.07785287 154.59709509 11.8002426 162.93451398 18.57080078 171.24316406 C21.74127562 175.14045428 24.87536673 179.06593792 28 183 C28.45713379 183.57057129 28.91426758 184.14114258 29.38525391 184.72900391 C30.90678972 186.62858551 32.42251918 188.53268816 33.9375 190.4375 C34.42299316 191.04158691 34.90848633 191.64567383 35.40869141 192.26806641 C37.44169768 194.83489095 38.95582372 196.86747117 40 200 C34.50545312 200.34904277 29.01747763 200.60133938 23.5144043 200.76904297 C21.64835174 200.83898569 19.78305388 200.93419547 17.91967773 201.05615234 C2.87957807 202.01504431 2.87957807 202.01504431 -1.90304565 198.66830444 C-5.21096597 195.42435555 -7.63349439 191.72992916 -9.94447327 187.73669434 C-11.5256979 185.13505121 -13.46399159 182.87309042 -15.4375 180.5625 C-22.41992099 172.07406664 -29.28392586 163.4888712 -36.04760742 154.82519531 C-40.63151858 148.95387707 -45.30904981 143.17259233 -50.0625 137.4375 C-55.072641 131.39253074 -59.92799429 125.26105783 -64.6796875 119.01171875 C-67.73186552 115.05005334 -70.89932968 111.19046418 -74.08984375 107.33984375 C-75.78451611 105.26395675 -77.41077999 103.15715443 -79 101 C-77.6606458 98.13086209 -76.14864701 95.73246457 -74.1875 93.25 C-73.56746094 92.46496094 -72.94742188 91.67992187 -72.30859375 90.87109375 C-68.90494972 86.63813544 -65.47449685 82.4271467 -62.04174805 78.21777344 C-58.48228605 73.84641536 -54.96897317 69.44342535 -51.5 65 C-47.55809153 59.95150237 -43.54962503 54.96248444 -39.5 50 C-33.10156077 42.15584105 -26.84064443 34.210251 -20.61767578 26.2265625 C-14.83765842 18.8138976 -8.97665408 11.49927011 -2.8984375 4.328125 C-0.98838915 2.15899011 -0.98838915 2.15899011 0 0 Z " fill="#F8F8F8" transform="translate(114,82)"/>
<path d="M0 0 C5.713125 -0.0825 11.42625 -0.165 17.3125 -0.25 C19.09180908 -0.28641602 20.87111816 -0.32283203 22.7043457 -0.36035156 C34.33321451 -0.49974595 44.44326901 0.53487382 53.27734375 8.93359375 C59.53606034 16.44121524 61.18825775 24.30343558 61.25 33.75 C61.270625 34.5234375 61.29125 35.296875 61.3125 36.09375 C61.34984818 41.65862846 60.29566418 45.94812608 58 51 C57.63519531 51.83789062 57.27039063 52.67578125 56.89453125 53.5390625 C53.03115242 60.98687584 47.74100588 65.10743379 40.03582764 68.35748291 C36.39282046 69.50723367 32.79193066 69.36706071 29.00390625 69.29296875 C28.26394409 69.28994751 27.52398193 69.28692627 26.76159668 69.28381348 C24.02842017 69.26825619 21.29544433 69.22637333 18.5625 69.1875 C12.436875 69.125625 6.31125 69.06375 0 69 C0 46.23 0 23.46 0 0 Z " fill="#F7F7F7" transform="translate(266,371)"/>
<path d="M0 0 C4.95 0 9.9 0 15 0 C15 8.91 15 17.82 15 27 C25.23 27 35.46 27 46 27 C45.67 18.09 45.34 9.18 45 0 C49.95 0 54.9 0 60 0 C60 22.77 60 45.54 60 69 C55.38 69 50.76 69 46 69 C46 59.43 46 49.86 46 40 C35.77 40 25.54 40 15 40 C15 49.57 15 59.14 15 69 C10.05 69 5.1 69 0 69 C0 46.23 0 23.46 0 0 Z " fill="#FBFBFB" transform="translate(194,371)"/>
<path d="M0 0 C5.28 0 10.56 0 16 0 C18.03621148 6.06633923 20.01735455 12.14600514 21.9375 18.25 C22.19837402 19.07846436 22.45924805 19.90692871 22.72802734 20.76049805 C26.30467265 32.1336123 29.76564751 43.52493025 33 55 C33.49306641 53.33904297 33.49306641 53.33904297 33.99609375 51.64453125 C37.18198739 40.95099011 40.44296256 30.2816063 43.75 19.625 C44.33285767 17.74518433 44.33285767 17.74518433 44.92749023 15.82739258 C46.57315176 10.53363862 48.24674083 5.25977751 50 0 C55.61 0 61.22 0 67 0 C65.46144488 5.5064078 63.75379655 10.74341106 61.5 16 C59.60374435 20.42838146 58.0418764 24.80767345 56.7734375 29.453125 C55.68616064 33.03345084 54.33641757 36.50723716 53 40 C51.4544506 44.0610351 49.91402137 48.12398712 48.375 52.1875 C47.96765625 53.25419922 47.5603125 54.32089844 47.140625 55.41992188 C46.75132812 56.45052734 46.36203125 57.48113281 45.9609375 58.54296875 C45.60821777 59.47133545 45.25549805 60.39970215 44.89208984 61.35620117 C43.81949516 64.34922043 43.81949516 64.34922043 43 69 C36.73 69 30.46 69 24 69 C20.72285546 60.36752169 17.52638218 51.72344783 14.5 43 C12.36436254 36.84603066 10.17986358 30.7177072 7.875 24.625 C5.93439191 19.48775401 4.00161985 14.34854137 2.125 9.1875 C1.51011719 7.50720703 1.51011719 7.50720703 0.8828125 5.79296875 C0 3 0 3 0 0 Z " fill="#F9F9F9" transform="translate(121,371)"/>
<path d="M0 0 C4.95 0 9.9 0 15 0 C14.67 18.81 14.34 37.62 14 57 C25.55 57 37.1 57 49 57 C49 60.96 49 64.92 49 69 C32.83 69 16.66 69 0 69 C0 46.23 0 23.46 0 0 Z " fill="#FBFBFB" transform="translate(336,371)"/>
<path d="M0 0 C19 0 19 0 25 3 C26.64453125 4.68359375 26.64453125 4.68359375 27.8125 6.4375 C28.21082031 7.01371094 28.60914063 7.58992188 29.01953125 8.18359375 C32.4826354 14.59930463 32.0768177 23.89170638 30.28125 30.7421875 C28.34972299 35.36850622 25.91913635 38.78429838 22 42 C15.03580586 44.32139805 7.34090518 43 0 43 C0 28.81 0 14.62 0 0 Z " fill="#656565" transform="translate(281,384)"/>
</svg>
